<svg xmlns="http://www.w3.org/2000/svg" width="20" height="18.34" viewBox="0 0 20 18.34">
  <defs>
    <style>
      .cls-1 {
        fill: #d8d6d6;
        fill-rule: evenodd;
      }
    </style>
  </defs>
  <path id="wishlist_icon" data-name="wishlist icon" class="cls-1" d="M1047.5,2782a5.889,5.889,0,0,1-9,0,5.447,5.447,0,0,0-5.5,5.5c0,3.78,3.4,6.86,8.55,11.54l1.45,1.31,1.45-1.32c5.15-4.67,8.55-7.75,8.55-11.53a5.447,5.447,0,0,0-5.5-5.5h0Zm-4.4,15.55-0.1.1-0.1-.1c-4.76-4.31-7.9-7.16-7.9-10.05a3.418,3.418,0,0,1,3.5-3.5,3.909,3.909,0,0,1,3.57,2.36h1.87a3.885,3.885,0,0,1,3.56-2.36,3.418,3.418,0,0,1,3.5,3.5c0,2.89-3.14,5.74-7.9,10.05h0Z" transform="translate(-1033 -2782)"/>
</svg>
